<svg width="754" height="251" viewBox="0 0 754 251" fill="none" xmlns="http://www.w3.org/2000/svg">
<path d="M52.2627 216.442C47.7054 216.442 43.7178 216.239 40.2998 215.832C36.8818 215.425 33.6673 214.449 30.6562 212.902C22.7624 209.077 18.8154 201.428 18.8154 189.953C18.8154 184.419 19.6699 177.787 21.3789 170.056C23.1693 162.325 25.6921 153.983 28.9473 145.031C36.1087 125.337 44.9792 106.416 55.5586 88.2686C47.2578 88.7568 40.666 90.0182 35.7832 92.0527C30.9818 94.0059 27.8079 97.0576 26.2617 101.208C26.9941 101.208 27.7266 102.062 28.459 103.771C29.1914 105.48 29.5576 107.23 29.5576 109.021C29.5576 111.95 28.2148 114.31 25.5293 116.101C22.8438 117.891 19.5072 118.786 15.5195 118.786C11.0436 118.786 7.38151 117.565 4.5332 115.124C1.52214 112.601 0.0166016 108.98 0.0166016 104.26C0.0166016 100.109 1.27799 96.1624 3.80078 92.4189C6.32357 88.5941 9.9043 85.2982 14.543 82.5312C19.263 79.6829 24.7155 77.4857 30.9004 75.9395C37.1667 74.3118 43.8805 73.498 51.042 73.498C54.5413 73.498 58.8952 73.7422 64.1035 74.2305C78.1009 52.1764 92.0983 34.8831 106.096 22.3506C122.372 7.78353 137.346 0.5 151.018 0.5C159.156 0.5 165.747 1.68001 170.793 4.04004L131.608 188H95.5977L114.763 97.3018C108.741 94.5348 103.085 92.4596 97.7949 91.0762C92.5866 89.6927 87.0934 88.7568 81.3154 88.2686C71.8753 108.695 64.1442 129.569 58.1221 150.891C51.9372 172.294 48.8447 189.506 48.8447 202.526C48.8447 208.955 49.984 213.594 52.2627 216.442ZM131.608 18.2002C124.366 22.1064 116.757 29.4714 108.781 40.2949C100.969 51.0371 93.5632 63.4476 86.5645 77.5264C97.9577 79.7236 108.13 82.6126 117.082 86.1934L131.608 18.2002ZM209.001 250.5C205.095 250.5 201.433 249.971 198.015 248.913C194.678 247.937 191.789 246.431 189.348 244.396C186.743 242.362 184.709 239.799 183.244 236.706C181.779 233.695 181.047 230.196 181.047 226.208C181.047 216.768 185.482 208.671 194.353 201.916C201.026 196.952 210.181 192.639 221.818 188.977L224.87 175.793C216.325 184.908 206.315 189.465 194.841 189.465C185.319 189.465 177.629 186.494 171.77 180.554C164.934 173.555 161.516 163.138 161.516 149.304C161.516 143.444 162.126 137.259 163.347 130.749C164.486 124.239 166.195 117.81 168.474 111.462C173.682 97.139 180.803 85.583 189.836 76.7939C200.253 66.7842 212.256 61.7793 225.847 61.7793C232.601 61.7793 237.647 62.9593 240.983 65.3193C244.401 67.598 246.11 70.6497 246.11 74.4746V75.9395L248.796 63H284.807L260.026 178.967C267.92 176.363 274.227 172.456 278.947 167.248C284.074 161.633 288.265 153.617 291.521 143.2H302.019C297.543 158.011 290.869 169.445 281.999 177.502C275.489 183.361 267.432 187.512 257.829 189.953L254.045 208.02C250.871 223.97 244.523 235.526 235.002 242.688C228.085 247.896 219.418 250.5 209.001 250.5ZM211.076 165.295C214.657 165.295 218.441 163.627 222.429 160.29C226.742 156.547 229.631 151.704 231.096 145.764L243.791 86.5596C243.791 85.7458 243.588 84.8099 243.181 83.752C242.855 82.694 242.367 81.7174 241.716 80.8223C239.763 78.4622 237.036 77.2822 233.537 77.2822C230.201 77.2822 226.945 78.3809 223.771 80.5781C220.679 82.7754 217.749 85.8271 214.982 89.7334C210.1 96.8135 206.071 106.05 202.897 117.443C201.433 122.489 200.334 127.494 199.602 132.458C198.869 137.341 198.503 141.776 198.503 145.764C198.503 154.064 200.049 159.68 203.142 162.609C204.2 163.749 205.38 164.481 206.682 164.807C207.984 165.132 209.449 165.295 211.076 165.295ZM203.264 230.969C205.868 230.969 208.553 229.138 211.32 225.476C214.087 221.895 216.244 216.32 217.79 208.752L219.255 201.55C211.687 204.398 206.031 207.287 202.287 210.217C197.323 213.96 194.841 218.151 194.841 222.79C194.841 224.987 195.533 226.818 196.916 228.283C198.462 230.074 200.578 230.969 203.264 230.969ZM330.461 250.5C326.555 250.5 322.893 249.971 319.475 248.913C316.138 247.937 313.249 246.431 310.808 244.396C308.203 242.362 306.169 239.799 304.704 236.706C303.239 233.695 302.507 230.196 302.507 226.208C302.507 216.768 306.942 208.671 315.812 201.916C322.486 196.952 331.641 192.639 343.278 188.977L346.33 175.549C341.447 180.92 336.158 184.704 330.461 186.901C326.066 188.61 321.346 189.465 316.301 189.465C308.326 189.465 302.019 187.105 297.38 182.385C292.172 177.176 289.567 169.567 289.567 159.558C289.567 154.838 290.218 149.385 291.521 143.2L308.488 63H344.499L326.555 147.961C326.066 149.995 325.822 152.111 325.822 154.309C325.822 157.482 326.351 160.005 327.409 161.877C328.63 164.156 330.583 165.295 333.269 165.295C337.663 165.295 341.61 163.342 345.109 159.436C348.12 156.099 350.684 151.216 352.8 144.787L370.256 63H406.267L381.486 178.967C389.38 176.363 395.687 172.456 400.407 167.248C405.534 161.633 409.725 153.617 412.98 143.2H423.479C419.003 158.011 412.329 169.445 403.459 177.502C396.949 183.361 388.892 187.512 379.289 189.953L375.505 208.02C372.331 223.97 365.983 235.526 356.462 242.688C349.545 247.896 340.878 250.5 330.461 250.5ZM324.724 230.969C327.246 230.969 329.932 229.138 332.78 225.476C335.547 221.895 337.704 216.32 339.25 208.752L340.715 201.55C333.146 204.398 327.491 207.287 323.747 210.217C318.783 213.96 316.301 218.151 316.301 222.79C316.301 224.987 316.993 226.818 318.376 228.283C319.922 230.074 322.038 230.969 324.724 230.969ZM443.132 189.465C433.61 189.465 425.92 186.494 420.061 180.554C413.225 173.555 409.807 163.138 409.807 149.304C409.807 143.444 410.417 137.259 411.638 130.749C412.777 124.239 414.486 117.81 416.765 111.462C421.973 97.139 429.094 85.583 438.127 76.7939C448.544 66.7842 460.547 61.7793 474.138 61.7793C480.892 61.7793 485.938 62.9593 489.274 65.3193C492.692 67.598 494.401 70.6497 494.401 74.4746V76.3057L497.087 63H533.098L515.153 147.961C514.421 150.402 514.055 153.088 514.055 156.018C514.055 163.179 517.473 166.76 524.309 166.76C528.866 166.76 533.016 164.44 536.76 159.802C539.934 155.896 542.538 150.362 544.572 143.2H555.07C550.594 155.896 545.183 165.946 538.835 173.352C533.464 179.455 527.401 183.85 520.646 186.535C515.682 188.488 510.433 189.465 504.899 189.465C497.819 189.465 492.163 187.552 487.932 183.728C483.781 179.821 481.258 174.084 480.363 166.516C475.643 173.189 470.679 178.397 465.471 182.141C458.798 187.023 451.351 189.465 443.132 189.465ZM459.367 165.295C461.239 165.295 463.192 164.807 465.227 163.83C467.342 162.854 469.377 161.47 471.33 159.68C475.725 155.448 478.654 149.955 480.119 143.2L492.082 86.8037C492.082 85.9899 491.879 85.054 491.472 83.9961C491.146 82.8568 490.658 81.7988 490.007 80.8223C488.054 78.4622 485.327 77.2822 481.828 77.2822C478.492 77.2822 475.236 78.3809 472.062 80.5781C468.97 82.7754 466.04 85.8271 463.273 89.7334C458.391 96.8135 454.362 106.05 451.188 117.443C449.724 122.489 448.625 127.494 447.893 132.458C447.16 137.341 446.794 141.776 446.794 145.764C446.794 154.064 448.34 159.68 451.433 162.609C452.491 163.749 453.671 164.481 454.973 164.807C456.275 165.132 457.74 165.295 459.367 165.295ZM574.724 189.465C565.202 189.465 557.512 186.494 551.652 180.554C544.816 173.555 541.398 163.138 541.398 149.304C541.398 143.444 542.009 137.259 543.229 130.749C544.369 124.239 546.078 117.81 548.356 111.462C553.565 97.139 560.686 85.583 569.719 76.7939C580.135 66.7842 592.139 61.7793 605.729 61.7793C612.484 61.7793 617.53 62.9593 620.866 65.3193C624.284 67.598 625.993 70.6497 625.993 74.4746V76.3057L628.679 63H664.689L646.745 147.961C646.013 150.402 645.646 153.088 645.646 156.018C645.646 163.179 649.064 166.76 655.9 166.76C660.458 166.76 664.608 164.44 668.352 159.802C671.525 155.896 674.13 150.362 676.164 143.2H686.662C682.186 155.896 676.774 165.946 670.427 173.352C665.056 179.455 658.993 183.85 652.238 186.535C647.274 188.488 642.025 189.465 636.491 189.465C629.411 189.465 623.755 187.552 619.523 183.728C615.373 179.821 612.85 174.084 611.955 166.516C607.235 173.189 602.271 178.397 597.062 182.141C590.389 187.023 582.943 189.465 574.724 189.465ZM590.959 165.295C592.831 165.295 594.784 164.807 596.818 163.83C598.934 162.854 600.969 161.47 602.922 159.68C607.316 155.448 610.246 149.955 611.711 143.2L623.674 86.8037C623.674 85.9899 623.47 85.054 623.063 83.9961C622.738 82.8568 622.25 81.7988 621.599 80.8223C619.646 78.4622 616.919 77.2822 613.42 77.2822C610.083 77.2822 606.828 78.3809 603.654 80.5781C600.562 82.7754 597.632 85.8271 594.865 89.7334C589.982 96.8135 585.954 106.05 582.78 117.443C581.315 122.489 580.217 127.494 579.484 132.458C578.752 137.341 578.386 141.776 578.386 145.764C578.386 154.064 579.932 159.68 583.024 162.609C584.082 163.749 585.262 164.481 586.564 164.807C587.867 165.132 589.331 165.295 590.959 165.295ZM701.066 189.465C693.091 189.465 686.784 187.105 682.146 182.385C676.937 177.176 674.333 169.567 674.333 159.558C674.333 154.838 674.984 149.385 676.286 143.2L691.301 73.0098H683L685.075 63H693.254L700.822 28.4541L737.81 23.4492L729.265 63H744.279L742.326 73.0098H727.312L711.32 147.961C710.669 150.077 710.344 152.762 710.344 156.018C710.344 159.436 711.117 161.836 712.663 163.22C714.291 164.603 716.895 165.295 720.476 165.295C722.917 165.295 725.277 164.766 727.556 163.708C729.916 162.569 732.072 161.022 734.025 159.069C738.013 155.082 741.024 149.792 743.059 143.2H753.557C749.081 155.814 743.465 165.865 736.711 173.352C731.014 179.455 724.585 183.85 717.424 186.535C712.215 188.488 706.763 189.465 701.066 189.465Z" fill="#FF9334"/>
</svg>
